<svg version="1.1" id="Calque_1" xmlns="http://www.w3.org/2000/svg" xmlns:xlink="http://www.w3.org/1999/xlink" x="0px" y="0px" viewBox="0 0 82.8 82.8" style="enable-background:new 0 0 82.8 82.8;" xml:space="preserve">
<g>
  <circle style="fill:transparent;stroke:#fff;" cx="41.4" cy="41.4" r="40.4"/>
	<path class="triangle" d="M55.8,39.7c0.5,0.5,0.6,1.2,0.1,1.8c0,0-0.1,0.1-0.1,0.1l-11,9.6l-10.1,8.7c-0.5,0.5-1.3,0.4-1.8-0.1
		c-0.2-0.2-0.3-0.6-0.3-0.9V22.4c0-0.7,0.5-1.3,1.2-1.3c0.3,0,0.6,0.1,0.9,0.3l10.1,8.7L55.8,39.7z"/>
</g>
<g class="icon-pause">
	<rect x="32.6" y="22" width="6" height="38.3"/>
	<rect x="44.4" y="22" width="6" height="38.3"/>
</g>
</svg>
