<svg class="logo" version="1.1" id="Calque_2" xmlns="http://www.w3.org/2000/svg" xmlns:xlink="http://www.w3.org/1999/xlink" x="0px" y="0px"
	 viewBox="0 0 449.5 89.7" xml:space="preserve">
<polyline class="st0" points="2.8,0.5 2.8,26.5 48.8,2.5 "/>
<path class="st0" d="M3.2,89.5V60.8c0-1.7,1-3.3,2.5-4L28.2,46l26,42"/>
<polyline class="st0" points="395.6,0.5 395.6,26.5 441.6,2.5 "/>
<path class="st0" d="M396.1,89.5V60.8c0-1.7,1-3.3,2.5-4L421.1,46l26,42"/>
<path class="st0" d="M108.8,0v84.1c0,1.6,1.3,2.9,2.9,2.9h51.1"/>
<line class="st0" x1="209.1" y1="0.5" x2="209.1" y2="89.5"/>
<path class="st0" d="M269.2,89.5v-51c0-1.3,1.5-2,2.6-1.2l61.7,50.2"/>
<polyline class="st0" points="337.5,0.5 337.5,54.8 273.2,2.5 "/>
</svg>
