<svg xmlns="http://www.w3.org/2000/svg" viewBox="0 0 54.47 44.51"><g><path d="M24.5 36h-1.36v-1V2.74a6.09 6.09 0 0 0 0-.77.74.74 0 0 0-.75-.69.77.77 0 0 0-.78.66 4.39 4.39 0 0 0 0 .86v33.17h-1.42v-.78V2.42c0-1.42.76-2.36 2.07-2.42a6.43 6.43 0 0 1 1.51.34 8.55 8.55 0 0 1 1.87-.25A1.9 1.9 0 0 1 27.44 2v34.03h-1.27V35 2.92a4.54 4.54 0 0 0-.05-.92.79.79 0 0 0-.78-.67.85.85 0 0 0-.82.75 3 3 0 0 0 0 .69v32.17zM43.76 18V2.36A2.08 2.08 0 0 1 46.28.08 2 2 0 0 1 48.06 2v31.6a2.17 2.17 0 1 1-4.3.55v-1V18zm1.35.1v15.13a5.64 5.64 0 0 0 0 .77.75.75 0 0 0 .82.7.74.74 0 0 0 .75-.69 4.13 4.13 0 0 0 0-.6V2.71a4 4 0 0 0 0-.69.77.77 0 0 0-.77-.68.74.74 0 0 0-.77.67 4.85 4.85 0 0 0 0 .77q-.03 7.66-.03 15.32zM41.3 18a8.41 8.41 0 0 1 .4 1.71v16.3h-1.28v-.83-15a2.77 2.77 0 0 0-.06-.76.74.74 0 0 0-.83-.59.75.75 0 0 0-.73.72 7.42 7.42 0 0 0 0 .86v15.62h-1.35v-.74V2.6a3.81 3.81 0 0 1 .09-.93A2 2 0 0 1 39.87.06a2 2 0 0 1 1.84 2.1v14.27A2.26 2.26 0 0 1 41.3 18zm-2.53-8.57v7.15s.29.91.78.93.79-.3.86-.88a3.56 3.56 0 0 0 0-.43V2.79a4 4 0 0 0 0-.68.82.82 0 0 0-.81-.74.9.9 0 0 0-.79.86v.6q-.04 3.29-.04 6.6zM50.14 36.07V.09a26.52 26.52 0 0 1 2.68 0 1.89 1.89 0 0 1 1.62 1.83v31.8A2.21 2.21 0 0 1 52.73 36a2.88 2.88 0 0 1-.6 0zm1.28-1.49c1.4.18 1.63 0 1.63-1.28V2.62 2.1a.76.76 0 0 0-.77-.76 7 7 0 0 0-.86 0zM13.8 18V2.7a4.64 4.64 0 0 1 .09-1.19A2 2 0 0 1 15.9 0a2.07 2.07 0 0 1 2 1.4 3.69 3.69 0 0 1 .16 1.1v31a2.35 2.35 0 0 1-1 2.16 2.06 2.06 0 0 1-2.2.12A2 2 0 0 1 13.8 34v-.86V18zm3 0V2.69a3.14 3.14 0 0 0 0-.6.86.86 0 0 0-.8-.76.75.75 0 0 0-.78.67 3.78 3.78 0 0 0-.06.77V33.3a3.1 3.1 0 0 0 0 .68.78.78 0 0 0 .84.7.76.76 0 0 0 .77-.77 6.46 6.46 0 0 0 0-.69q-.02-7.59-.02-15.22zM3.09 18A2.4 2.4 0 0 1 4 20.17V33.5a6.76 6.76 0 0 1 0 .69 2 2 0 0 1-2.07 1.88 1.91 1.91 0 0 1-1.92-2v-9.46a3.83 3.83 0 0 1 .06-.45H1.3v9.26a1.7 1.7 0 0 0 .07.76c.12.22.41.5.59.48s.48-.31.66-.53 0-.33 0-.5V20.22c0-.95 0-1-1-1.21v-1.88c.27-.14.67-.21.82-.44a2.09 2.09 0 0 0 .18-1.06V2.73 2.3c0-.63-.28-1-.71-1s-.64.37-.64 1v10.33H.09a1.37 1.37 0 0 1-.09-.31V2A2 2 0 0 1 2.67.11 2 2 0 0 1 4 2V15.87A2.38 2.38 0 0 1 3.09 18zM32.25 18.8V36H31v-.56-32a14.81 14.81 0 0 1 0-1.63A2 2 0 0 1 33.2 0a2 2 0 0 1 2 2v8.68c0 1.86-.07 3.73 0 5.59a2.27 2.27 0 0 1-2.95 2.53zm0-9.36v6.78a2.85 2.85 0 0 0 0 .68.78.78 0 0 0 .81.63.73.73 0 0 0 .75-.59 3.13 3.13 0 0 0 .07-.76V2.7a3.25 3.25 0 0 0 0-.6.86.86 0 0 0-.79-.78.88.88 0 0 0-.85.81 4.54 4.54 0 0 0 0 .6q.01 3.36.01 6.71zM8.86 18.81V36H7.59v-.64V3.04v-1A2.06 2.06 0 0 1 9.72 0a2 2 0 0 1 2.07 2.06v6.88s-.07 4.87 0 7.31c.09 1.81-.96 2.88-2.93 2.56zm0-9.42v6.78a4.19 4.19 0 0 0 0 .6.82.82 0 0 0 1.62.06 3.07 3.07 0 0 0 0-.68V2.67a3.34 3.34 0 0 0 0-.51.93.93 0 0 0-.84-.83.93.93 0 0 0-.81.86 5.5 5.5 0 0 0 0 .6q.03 3.3.03 6.6zM33.28 43a1.46 1.46 0 0 1-1.55 1.46 1.51 1.51 0 0 1-1.5-1.46 1.58 1.58 0 0 1 1.53-1.54A1.54 1.54 0 0 1 33.28 43zM28.64 43a1.42 1.42 0 0 1-1.45 1.54A1.47 1.47 0 0 1 25.62 43a1.57 1.57 0 0 1 1.52-1.54 1.53 1.53 0 0 1 1.5 1.54zM24.19 43a1.5 1.5 0 1 1-3 0 1.5 1.5 0 1 1 3 0z"/></g></svg>