<svg ref="coely-title" version="1.1" xmlns="http://www.w3.org/2000/svg" xmlns:xlink="http://www.w3.org/1999/xlink" x="0px" y="0px"
	 viewBox="0 0 307.4 57.1" style="enable-background:new 0 0 307.4 57.1;" xml:space="preserve">
	<g class="letters">
		<g>
			<path d="M196.8,53.7c-2,1.7-4.6,2.7-7.5,2.7c-6.5,0-11.8-5.3-11.8-11.8s5.3-11.8,11.8-11.8c2.6,0,5.1,0.9,7,2.3"/>
		</g>
		<g>
			<polyline points="255.7,33.4 241.6,33.4 241.6,40.8 250.9,40.8 	"/>
			<polyline points="255.7,55.8 241.6,55.8 241.6,48.5 250.9,48.5 	"/>
		</g>
		<g>
			<polyline points="267.2,33.2 267.3,56 281.5,56 	"/>
		</g>
		<g>
			<circle cx="219.8" cy="44.6" r="11.8"/>
		</g>
		<g>
			<polyline points="307.1,33.2 299.1,40.5 290.9,33.2 	"/>
			<line class="st0" x1="299" y1="56.1" x2="299" y2="47.5"/>
		</g>
	</g>
</svg>
