<?xml version="1.0" encoding="utf-8"?>
<!-- Generator: Adobe Illustrator 21.1.0, SVG Export Plug-In . SVG Version: 6.00 Build 0)  -->
<svg version="1.1" id="Layer_1" xmlns="http://www.w3.org/2000/svg" xmlns:xlink="http://www.w3.org/1999/xlink" x="0px" y="0px"
	 viewBox="0 0 93 93" style="enable-background:new 0 0 93 93;" xml:space="preserve">
<style type="text/css">
	.st0{fill:none;stroke:#FFFFFF;stroke-miterlimit:10;}
	.st1{fill:#FFFFFF;}
</style>
<g>
	<circle class="st0" cx="46.5" cy="46.5" r="46"/>
	<path class="st0" d="M20.2,20.2c6.7-6.7,16-10.9,26.3-10.9c9,0,17.2,3.2,23.6,8.5"/>
	<path class="st0" d="M77.5,67c-6.6,10-18,16.7-31,16.7c-16.3,0-30.1-10.5-35.1-25.1"/>
	<path class="st0" d="M13.4,55.4c-0.8-2.8-1.2-5.8-1.2-8.9c0-6.8,2-13.1,5.4-18.5"/>
	<path class="st0" d="M57.1,21.5c9.7,4.1,16.6,13.8,16.6,25c0,6.5-2.3,12.4-6,17"/>
	<path class="st0" d="M30,54.9c-1.3-2.5-2-5.4-2-8.4C28,36.3,36.3,28,46.5,28"/>
	<path class="st0" d="M26.9,36.1c3.7-7,11.1-11.8,19.6-11.8c8.8,0,16.4,5.1,19.9,12.5"/>
	<path class="st0" d="M59.9,64.1c-3.7,2.9-8.4,4.5-13.4,4.5"/>
	<path class="st0" d="M17.6,38.1c3.6-12.5,15.2-21.7,28.9-21.7c5.2,0,10.1,1.3,14.3,3.6"/>
	<path class="st0" d="M28,9.9C33.7,7,40.1,5.5,46.5,5.5c22.5,0,41,18.5,41,41"/>
	<g>
		<path class="st1" d="M46.5,43.2c1.8,0,3.3,1.5,3.3,3.3s-1.5,3.3-3.3,3.3c-1.8,0-3.3-1.5-3.3-3.3S44.7,43.2,46.5,43.2 M46.5,31.2
			c-8.4,0-15.3,6.9-15.3,15.3c0,8.4,6.9,15.3,15.3,15.3c8.4,0,15.3-6.9,15.3-15.3C61.8,38.1,54.9,31.2,46.5,31.2L46.5,31.2z"/>
	</g>
</g>
</svg>
