<?xml version="1.0" encoding="utf-8"?>
<!-- Generator: Adobe Illustrator 21.1.0, SVG Export Plug-In . SVG Version: 6.00 Build 0)  -->
<svg version="1.1" id="Layer_1" xmlns="http://www.w3.org/2000/svg" xmlns:xlink="http://www.w3.org/1999/xlink" x="0px" y="0px"
	 viewBox="0 0 77.4 90.8" style="enable-background:new 0 0 77.4 90.8;" xml:space="preserve">
<style type="text/css">
	.st0{fill:none;stroke:#B3B3B3;stroke-width:0.25;stroke-miterlimit:10;}
	.st1{fill:#FFFFFF;}
</style>
<g>
	<polygon class="st0" points="0.3,53.9 39.1,53.9 16,90.3 77,42.5 35.6,42.5 64.1,0.7 	"/>
	<g>
		<path class="st1" d="M67.1,62.8h-1.5V48.5c0-14.7-12-26.7-26.7-26.7s-26.7,12-26.7,26.7v14.3h-1.5V48.5
			c0-15.6,12.7-28.2,28.2-28.2c15.6,0,28.2,12.7,28.2,28.2V62.8z"/>
		<path class="st1" d="M61.2,70.1c-6.8,0-12.3-5.5-12.3-12.3V57c0-6.8,5.5-12.3,12.3-12.3c3.3,0,5.9,2.6,5.9,5.9v13.7
			C67.1,67.5,64.4,70.1,61.2,70.1z M61.2,46.2c-5.9,0-10.8,4.8-10.8,10.8v0.8c0,5.9,4.8,10.8,10.8,10.8c2.4,0,4.4-2,4.4-4.4V50.6
			C65.5,48.2,63.6,46.2,61.2,46.2z"/>
		<path class="st1" d="M16.5,70.1c-3.3,0-5.9-2.6-5.9-5.9V50.6c0-3.3,2.6-5.9,5.9-5.9c6.8,0,12.3,5.5,12.3,12.3v0.8
			C28.8,64.6,23.3,70.1,16.5,70.1z M16.5,46.2c-2.4,0-4.4,2-4.4,4.4v13.7c0,2.4,2,4.4,4.4,4.4c5.9,0,10.8-4.8,10.8-10.8V57
			C27.3,51.1,22.4,46.2,16.5,46.2z"/>
	</g>
</g>
</svg>
