<svg ref="kamasi-title" version="1.1" id="Calque_2" xmlns="http://www.w3.org/2000/svg" xmlns:xlink="http://www.w3.org/1999/xlink" x="0px" y="0px"
	 viewBox="0 0 307.4 57.1" style="enable-background:new 0 0 307.4 57.1;" xml:space="preserve">
	<g class="letters">
		<g>
			<path class="st0" d="M83,56.6l1.7-4.1h13.7c0.3,0,0.6,0.2,0.8,0.5l1.6,3.6"/>
			<polygon class="st0" points="91.9,34.7 87.8,45.1 95.9,45.1 		"/>
		</g>
		<g>
			<path class="st0" d="M83.5,24.1l1.7-4.1h13.7c0.3,0,0.6,0.2,0.8,0.5l1.6,3.6"/>
			<polygon class="st0" points="92.4,2.2 88.3,12.6 96.3,12.6 		"/>
		</g>
		<g>
			<path class="st0" d="M24.5,24.1l1.7-4.1h13.7c0.3,0,0.6,0.2,0.8,0.5l1.6,3.6"/>
			<polygon class="st0" points="33.4,2.2 29.3,12.6 37.3,12.6 		"/>
		</g>
		<g>
			<path class="st0" d="M219.4,35.4c-2-1.5-4.4-2.3-7-2.3c-6.5,0-11.8,5.3-11.8,11.8s5.3,11.8,11.8,11.8c2.8,0,5.5-1,7.5-2.7v-5.3
				h-8.5"/>
			<line class="st0" x1="211.3" y1="41.1" x2="219.9" y2="41.1"/>
		</g>
		<g>
			<polyline class="st0" points="136.9,33 136.9,40.9 150.6,40.9 150.6,33 		"/>
			<polyline class="st0" points="150.6,56.6 150.6,48.8 136.9,48.8 136.9,56.7 		"/>
		</g>
		<g>
			<line class="st0" x1="161.4" y1="33.1" x2="161.4" y2="56.7"/>
		</g>
		<g>
			<line class="st0" x1="138.1" y1="0.6" x2="138.1" y2="24.2"/>
		</g>
		<g>
			<polyline class="st0" points="0.7,0.5 0.7,7.3 13,1.1 		"/>
			<path class="st0" d="M14.4,23.8L7.4,12.7l-5.7,2.6c-0.7,0.3-1.1,1-1.1,1.7v7.2"/>
		</g>
		<g>
			<polyline class="st0" points="52.3,24.1 52.3,9.6 62.8,18.3 73.4,9.6 73.4,24.2 		"/>
			<polyline class="st0" points="53.2,1.1 62.8,8.8 72.2,1.1 		"/>
		</g>
		<g>
			<polyline class="st0" points="73.3,33.6 73.3,48.2 62.8,39.4 52.3,48.2 52.3,33.6 		"/>
			<polyline class="st0" points="72.4,56.7 62.8,48.9 53.4,56.7 		"/>
		</g>
		<g>
			<path class="st0" d="M124.7,37.8c0,0-0.4-4.8-5.8-4.8c-5.4,0-6.2,3.6-6.2,4.8c0,1.2,0,3.1,6.2,5.4c6.2,2.3,7.9,3.7,8,7.7
				s-4.6,5.8-8,5.8c-3.4,0-8.1-2.3-8.1-6.5"/>
		</g>
		<g>
			<polyline class="st0" points="289,56.7 289,42.1 306,56.1 		"/>
			<polyline class="st0" points="307,33.1 307,47.7 290,33.6 		"/>
		</g>
		<g>
			<polyline class="st0" points="172.1,56.7 172.1,42.1 189.1,56.1 		"/>
			<polyline class="st0" points="190.1,33.1 190.1,47.7 173,33.6 		"/>
		</g>
		<g>
			<circle class="st0" cx="266.8" cy="44.8" r="11.8"/>
		</g>
		<g>
			<line class="st0" x1="229.3" y1="33.7" x2="244.3" y2="33.7"/>
			<line class="st0" x1="236.8" y1="56.7" x2="236.8" y2="33.7"/>
		</g>
		<g>
			<path class="st0" d="M125.3,5.3c0,0-0.4-4.8-5.8-4.8c-5.4,0-6.2,3.6-6.2,4.8s0,3.1,6.2,5.4c6.2,2.3,8,3.7,8,7.7c0,4-4.6,5.8-8,5.8
				c-3.4,0-8.1-2.3-8.1-6.5"/>
		</g>
	</g>
</svg>
