<svg version="1.1" id="LGOG" xmlns="http://www.w3.org/2000/svg" xmlns:xlink="http://www.w3.org/1999/xlink" x="0px" y="0px"
	 viewBox="0 0 54.5 44.5" style="enable-background:new 0 0 54.5 44.5;" xml:space="preserve">
<style type="text/css">
	.st0{fill:#FFFFFF;}
</style>
<g id="gGecIQ_1_">
	<g>
		<path class="st0" d="M24.5,36c-0.5,0-0.9,0-1.4,0c0-0.3,0-0.7,0-1c0-10.8,0-21.5,0-32.3c0-0.3,0-0.5,0-0.8
			c-0.1-0.4-0.3-0.7-0.7-0.7c-0.4,0-0.7,0.3-0.8,0.7c-0.1,0.3,0,0.6,0,0.9c0,10.7,0,21.4,0,32.2c0,0.3,0,0.6,0,1c-0.5,0-0.9,0-1.4,0
			c0-0.3,0-0.5,0-0.8c0-10.9,0-21.8,0-32.8c0-1.5,0.8-2.4,2.1-2.4c0.5,0,1,0.2,1.5,0.3C24.4,0.3,25,0,25.6,0.1
			c1.1,0.1,1.7,0.9,1.8,1.9c0,0.2,0,0.4,0,0.6c0,10.8,0,21.6,0,32.4c0,0.3,0,0.6,0,1c-0.4,0-0.8,0-1.3,0c0-0.3,0-0.6,0-1
			c0-10.7,0-21.4,0-32.1c0-0.3,0-0.6-0.1-0.9c-0.1-0.4-0.4-0.7-0.8-0.7c-0.5,0-0.7,0.3-0.8,0.7c-0.1,0.2,0,0.5,0,0.7
			c0,10.7,0,21.4,0,32.2C24.5,35.3,24.5,35.6,24.5,36z"/>
		<path class="st0" d="M43.8,18c0-5.2,0-10.4,0-15.6c0-1.6,1-2.5,2.5-2.3C47.3,0.2,48,1,48.1,2c0,0.2,0,0.4,0,0.6
			c0,10.3,0,20.7,0,31c0,1.3-0.5,2-1.5,2.3c-1.3,0.4-2.7-0.4-2.8-1.8c0-0.3,0-0.7,0-1C43.8,28.1,43.8,23,43.8,18z M45.1,18.1
			c0,5,0,10.1,0,15.1c0,0.3,0,0.5,0,0.8c0.1,0.5,0.4,0.7,0.8,0.7c0.4,0,0.7-0.3,0.7-0.7c0-0.2,0-0.4,0-0.6c0-10.2,0-20.5,0-30.7
			c0-0.2,0-0.5,0-0.7c-0.1-0.4-0.4-0.7-0.8-0.7c-0.4,0-0.7,0.2-0.8,0.7c0,0.3,0,0.5,0,0.8C45.1,7.9,45.1,13,45.1,18.1z"/>
		<path class="st0" d="M41.3,18c0.2,0.7,0.4,1.2,0.4,1.7c0,5.3,0,10.6,0,15.8c0,0.1,0,0.3,0,0.5c-0.4,0-0.8,0-1.3,0
			c0-0.3,0-0.5,0-0.8c0-5,0-10,0-15c0-0.3,0-0.5-0.1-0.8c-0.1-0.4-0.4-0.6-0.8-0.6c-0.4,0-0.7,0.3-0.7,0.7c0,0.3,0,0.6,0,0.9
			c0,4.9,0,9.7,0,14.6c0,0.3,0,0.6,0,1c-0.5,0-0.9,0-1.3,0c0-0.2,0-0.5,0-0.7c0-10.9,0-21.8,0-32.7c0-0.3,0-0.6,0.1-0.9
			c0.3-1.1,1.2-1.8,2.4-1.6C41,0.2,41.7,1,41.7,2.2c0,3.8,0,7.6,0,11.4c0,1,0,1.9,0,2.9C41.7,17.1,41.6,17.6,41.3,18z M38.8,9.4
			c0,1.7,0,3.3,0,5c0,0.7,0,1.4,0,2.1c0,0.6,0.3,0.9,0.8,0.9c0.5,0,0.8-0.3,0.9-0.9c0-0.1,0-0.3,0-0.4c0-4.5,0-8.9,0-13.4
			c0-0.2,0-0.5,0-0.7c-0.1-0.4-0.4-0.7-0.8-0.7c-0.4,0-0.8,0.4-0.8,0.9c0,0.2,0,0.4,0,0.6C38.8,5,38.8,7.2,38.8,9.4z"/>
		<path class="st0" d="M50.1,36.1c0-12.1,0-24,0-36c0.9,0,1.8-0.1,2.7,0c0.9,0.1,1.6,0.9,1.6,1.8c0,0.1,0,0.3,0,0.4
			c0,10.5,0,20.9,0,31.4c0,1.1-0.6,2.1-1.7,2.3c-0.2,0-0.4,0-0.6,0C51.5,36.1,50.8,36.1,50.1,36.1z M51.4,34.6
			c1.4,0.2,1.6,0,1.6-1.3c0-10.2,0-20.5,0-30.7c0-0.2,0-0.3,0-0.5c0-0.5-0.3-0.7-0.8-0.8c-0.3,0-0.5,0-0.9,0
			C51.4,12.5,51.4,23.5,51.4,34.6z"/>
		<path class="st0" d="M13.8,18c0-5.1,0-10.2,0-15.3c0-0.4,0-0.8,0.1-1.2C14.1,0.6,15,0,15.9,0c0.9,0,1.8,0.5,2,1.4
			c0.1,0.3,0.2,0.7,0.2,1.1c0,10.3,0,20.7,0,31c0,0.9-0.2,1.7-1,2.2c-0.7,0.5-1.5,0.5-2.2,0.1c-0.7-0.4-1.2-1-1.1-1.9
			c0-0.3,0-0.6,0-0.9C13.8,28.1,13.8,23,13.8,18z M16.7,18c0-5.1,0-10.2,0-15.3c0-0.2,0-0.4,0-0.6c-0.1-0.4-0.4-0.7-0.8-0.8
			c-0.4,0-0.7,0.3-0.8,0.7c-0.1,0.2-0.1,0.5-0.1,0.8c0,10.2,0,20.4,0,30.5c0,0.2,0,0.5,0,0.7c0.1,0.4,0.4,0.7,0.8,0.7
			c0.5,0,0.7-0.3,0.8-0.8c0-0.2,0-0.5,0-0.7C16.7,28.2,16.7,23.1,16.7,18z"/>
		<path class="st0" d="M3.1,18C3.9,18.6,4,19.4,4,20.2c0,4.4,0,8.9,0,13.3c0,0.2,0,0.5,0,0.7c-0.1,1.1-1,1.9-2.1,1.9
			c-1.1,0-1.9-0.8-1.9-2c0-3.2,0-6.3,0-9.5c0-0.1,0-0.3,0.1-0.4c0.4,0,0.8,0,1.2,0c0,0.3,0,0.6,0,0.8c0,2.8,0,5.6,0,8.4
			c0,0.3,0,0.6,0.1,0.8c0.1,0.2,0.4,0.5,0.6,0.5c0.2,0,0.5-0.3,0.7-0.5c0.1-0.1,0-0.3,0-0.5c0-4.5,0-8.9,0-13.4c0-0.9,0-1-1-1.2
			c0-0.6,0-1.2,0-1.9c0.3-0.1,0.7-0.2,0.8-0.4c0.2-0.3,0.2-0.7,0.2-1.1c0-4.3,0-8.6,0-12.9c0-0.1,0-0.3,0-0.4c0-0.6-0.3-1-0.7-1
			c-0.4,0-0.6,0.4-0.6,1c0,2.8,0,5.5,0,8.3c0,0.7,0,1.4,0,2.1c-0.4,0-0.8,0-1.2,0c0-0.1-0.1-0.2-0.1-0.3C0,8.9,0,5.4,0,2
			c0-1.4,1.3-2.3,2.7-1.9C3.4,0.4,4,1.1,4,2c0,0.7,0,1.4,0,2.1C4,8.1,4,12,4,15.9C4,16.7,3.9,17.5,3.1,18z"/>
		<path class="st0" d="M32.3,18.8c0,5.8,0,11.5,0,17.2c-0.4,0-0.8,0-1.3,0c0-0.2,0-0.4,0-0.6c0-10.7,0-21.3,0-32c0-0.5,0-1.1,0-1.6
			C31.1,0.7,32.1,0,33.2,0c1.1,0.1,2,0.9,2,2c0,2.9,0,5.8,0,8.7c0,1.9-0.1,3.7,0,5.6C35.3,18.1,34.1,19.1,32.3,18.8z M32.2,9.4
			c0,2.3,0,4.5,0,6.8c0,0.2,0,0.5,0,0.7c0.1,0.4,0.4,0.6,0.8,0.6c0.4,0,0.7-0.2,0.8-0.6c0.1-0.2,0.1-0.5,0.1-0.8c0-4.5,0-9,0-13.5
			c0-0.2,0-0.4,0-0.6c-0.1-0.4-0.3-0.7-0.8-0.8c-0.4,0-0.8,0.3-0.8,0.8c0,0.2,0,0.4,0,0.6C32.2,5,32.2,7.2,32.2,9.4z"/>
		<path class="st0" d="M8.9,18.8c0,5.8,0,11.5,0,17.2c-0.4,0-0.8,0-1.3,0c0-0.2,0-0.4,0-0.6c0-10.8,0-21.5,0-32.3c0-0.3,0-0.7,0-1
			c0.1-1.2,1-2,2.1-2c1.2,0,2.1,0.8,2.1,2.1c0,2.3,0,4.6,0,6.9c0,2.4-0.1,4.9,0,7.3C11.9,18.1,10.8,19.1,8.9,18.8z M8.9,9.4
			c0,2.3,0,4.5,0,6.8c0,0.2,0,0.4,0,0.6c0.1,0.4,0.3,0.7,0.8,0.8c0.5,0,0.7-0.3,0.8-0.7c0.1-0.2,0-0.5,0-0.7c0-4.5,0-9,0-13.5
			c0-0.2,0-0.3,0-0.5c-0.1-0.5-0.5-0.8-0.8-0.8c-0.4,0-0.8,0.4-0.8,0.9c0,0.2,0,0.4,0,0.6C8.9,5,8.9,7.2,8.9,9.4z"/>
		<path class="st0" d="M33.3,43c0,0.9-0.7,1.5-1.5,1.5c-0.9,0-1.5-0.7-1.5-1.5c0-0.8,0.7-1.5,1.5-1.5C32.6,41.4,33.3,42.2,33.3,43z"
			/>
		<path class="st0" d="M28.6,43c0,0.9-0.6,1.5-1.5,1.5c-0.9,0-1.6-0.6-1.6-1.5c0-0.8,0.7-1.5,1.5-1.5C28,41.4,28.6,42.1,28.6,43z"/>
		<path class="st0" d="M24.2,43c0,0.9-0.6,1.5-1.5,1.5c-0.9,0-1.6-0.6-1.5-1.5c0-0.8,0.7-1.5,1.5-1.5C23.5,41.4,24.2,42.1,24.2,43z"
			/>
	</g>
</g>
</svg>
