<?xml version="1.0" encoding="utf-8"?>
<!-- Generator: Adobe Illustrator 21.1.0, SVG Export Plug-In . SVG Version: 6.00 Build 0)  -->
<svg version="1.1" id="Calque_4" xmlns="http://www.w3.org/2000/svg" xmlns:xlink="http://www.w3.org/1999/xlink" x="0px" y="0px"
	 viewBox="0 0 13.5 47.5" style="enable-background:new 0 0 13.5 47.5;" xml:space="preserve">
<style type="text/css">
	.st0{fill:none;stroke:#FFFFFF;stroke-miterlimit:10;}
	.st1{fill:none;stroke:#FFFFFF;stroke-linecap:round;stroke-miterlimit:10;}
	.st2{fill:#FFFFFF;}
</style>
<g>
	<g>
		<path class="st0" d="M6.7,11.9L6.7,11.9c-3.4,0-6.2,2.8-6.2,6.2v11.2c0,3.4,2.8,6.2,6.2,6.2h0c3.4,0,6.2-2.8,6.2-6.2V18.1
			C13,14.7,10.2,11.9,6.7,11.9z"/>
		<line class="st1" x1="6.7" y1="17" x2="6.7" y2="19.2"/>
	</g>
	<path class="st2" d="M6.6,0.1C6.7,0,6.8,0,6.9,0.1l1.4,1.6l1.3,1.5c0.1,0.1,0,0.3-0.1,0.3H6.7H4c-0.2,0-0.2-0.2-0.1-0.3l1.3-1.5
		L6.6,0.1z"/>
	<path class="st2" d="M6.9,47.4c-0.1,0.1-0.2,0.1-0.3,0l-1.4-1.6l-1.3-1.5c-0.1-0.1,0-0.3,0.1-0.3h2.7h2.7c0.2,0,0.2,0.2,0.1,0.3
		l-1.3,1.5L6.9,47.4z"/>
</g>
</svg>
