<svg ref="tinariwen-title" version="1.1" id="Calque_2" xmlns="http://www.w3.org/2000/svg" xmlns:xlink="http://www.w3.org/1999/xlink" x="0px" y="0px"
	 viewBox="0 0 307.4 57.1" style="enable-background:new 0 0 307.4 57.1;" xml:space="preserve">
	<g class="letters">
		<g>
			<path class="st0" d="M168,57l1.7-4.1h13.7c0.3,0,0.6,0.2,0.8,0.5l1.6,3.6"/>
			<polygon class="st0" points="176.8,35.1 172.8,45.5 180.8,45.5 		"/>
		</g>
		<g>
			<polyline class="st0" points="278.2,34.6 264.2,34.6 264.2,42 273.5,42 		"/>
			<polyline class="st0" points="278.2,57 264.2,57 264.2,49.7 273.5,49.7 		"/>
		</g>
		<g>
			<line class="st0" x1="222.2" y1="33.4" x2="222.2" y2="57"/>
		</g>
		<g>
			<line class="st0" x1="128.8" y1="33.4" x2="128.8" y2="57"/>
		</g>
		<g>
			<polyline class="st0" points="253.4,34 253.4,48.5 242.9,39.8 232.3,48.5 232.3,33.9 		"/>
			<polyline class="st0" points="252.4,57 242.9,49.3 233.4,57 		"/>
		</g>
		<g>
			<polyline class="st0" points="289,57 289,42.4 306,56.5 		"/>
			<polyline class="st0" points="307,33.4 307,48 290,34 		"/>
		</g>
		<g>
			<polyline class="st0" points="139.4,57 139.4,42.4 156.5,56.5 		"/>
			<polyline class="st0" points="157.5,33.4 157.5,48 140.4,34 		"/>
		</g>
		<g>
			<path class="st0" d="M196.6,41.6v-7.5h10c2.1,0,3.8,1.7,3.8,3.7v0c0,2.1-1.7,3.7-3.8,3.7H196.6z"/>
			<path class="st0" d="M196.6,57v-8h9.9c0.5,0,1,0.3,1.2,0.7l3.9,7"/>
		</g>
		<g>
			<line class="st0" x1="102.9" y1="34" x2="117.9" y2="34"/>
			<line class="st0" x1="110.4" y1="57" x2="110.4" y2="34"/>
		</g>
	</g>
</svg>
