<svg ref="vulfpeck-title" version="1.1" id="Calque_2" xmlns="http://www.w3.org/2000/svg" xmlns:xlink="http://www.w3.org/1999/xlink" x="0px" y="0px"
	 viewBox="0 0 307.4 57.1" style="enable-background:new 0 0 307.4 57.1;" xml:space="preserve">
	<g class="letters">
		<g>
			<path class="st0" d="M282.3,53.8c-2,1.7-4.6,2.7-7.5,2.7c-6.5,0-11.8-5.3-11.8-11.8s5.3-11.8,11.8-11.8c2.6,0,5.1,0.9,7,2.3"/>
		</g>
		<g>
			<polyline class="st0" points="253.2,32.9 239.2,32.9 239.2,40.3 248.4,40.3 		"/>
			<polyline class="st0" points="253.2,55.4 239.2,55.4 239.2,48 248.4,48 		"/>
		</g>
		<g>
			<polyline class="st0" points="204.6,32.9 190.6,32.9 190.6,40.3 199.9,40.3 		"/>
			<polyline class="st0" points="190.6,55.9 190.6,48 199.9,48 		"/>
		</g>
		<g>
			<polyline class="st0" points="293.2,32.9 293.2,39.7 305.5,33.4 		"/>
			<path class="st0" d="M306.8,56.2L299.9,45l-5.7,2.6c-0.7,0.3-1.1,1-1.1,1.7v7.2"/>
		</g>
		<g>
			<polyline class="st0" points="166.1,32.9 166.2,55.7 180.4,55.7 	"/>
		</g>
		<g>
			<line class="st0" x1="214.5" y1="47.3" x2="214.5" y2="55.9"/>
			<path class="st0" d="M214.5,40.4v-7.5h10c2.1,0,3.8,1.7,3.8,3.7v0c0,2.1-1.7,3.7-3.8,3.7H214.5z"/>
		</g>
		<g>
			<path class="st0" d="M140.7,32.9v16.2c0,4.1,3.3,7.4,7.4,7.4h0c4.1,0,7.4-3.3,7.4-7.4V32.9"/>
			<polyline class="st0" points="114.6,32.9 122.6,54.4 130.5,32.9 	"/>
		</g>
	</g>
</svg>
